<!DOCTYPE svg PUBLIC "-//W3C//DTD SVG 1.1//EN" "https://www.w3.org/Graphics/SVG/1.1/DTD/svg11.dtd">
<svg xmlns="http://www.w3.org/2000/svg" class="sc-hjQCSK iOOXDE graph" data-testid="graph" width="850" height="953"><g transform="translate(12,12)" class="new-look-graph"><g class="nodes"><g class="node-container" transform="translate(337.5,22)"><g><circle class="sc-gITdmR dOOrib shape" r="22"/><text class="sc-brCFrO iUlozD label"><tspan xml:space="preserve" text-anchor="middle" alignment-baseline="central">Start</tspan></text></g></g><g class="node-container" transform="translate(337.5,103.5)"><g class="sc-hNKHps ejDZrz node state Task" data-testid="graph-Start database" data-state-id="Start database" data-state-type="Task"><g class="new-look-state-node "><rect x="-120" y="-24.5" width="240" height="49" rx="3" ry="3"/><g class="handle" transform="translate(-120,-24.5)"><path d="M5,16 L5,34 M8,16 L8,34"/></g><g class="icon" transform="translate(-104,-24)"><rect fill="var(--color-background-container-header-g9rg0j, #fafafa)" x="0.0361026108" y="0.0181291967" width="48" height="48"/><line x1="47.5" y1="0.49122807" x2="47.5" y2="47.5" stroke="var(--color-text-home-header-secondary-g5rqe4, #d5dbdb)" stroke-linecap="square"/><line x1="0.5" y1="0.49122807" x2="0.5" y2="47.5" stroke="var(--color-text-home-header-secondary-g5rqe4, #d5dbdb)" stroke-linecap="square"/><use href="#icon-service-ec2"/></g><g class="text-lines" transform="translate(-48,-24.5)"><text transform="translate(0,17)" class="line1"><tspan xml:space="preserve" text-anchor="start">EC2: StartInstances</tspan></text><text transform="translate(0,35.5)" class="line2 label"><tspan xml:space="preserve" text-anchor="start">Start database</tspan></text></g></g></g></g><g class="node-container" transform="translate(260,187.5)"><g class="sc-hNKHps ejDZrz node state Wait" data-testid="graph-Wait 20 seconds" data-state-id="Wait 20 seconds" data-state-type="Wait"><g class="new-look-state-node "><rect x="-120" y="-24.5" width="240" height="49" rx="3" ry="3"/><g class="handle" transform="translate(-120,-24.5)"><path d="M5,16 L5,34 M8,16 L8,34"/></g><g class="icon" transform="translate(-104,-24)"><rect fill="var(--color-background-container-header-g9rg0j, #fafafa)" x="0.0361026108" y="0.0181291967" width="48" height="48"/><line x1="47.5" y1="0.49122807" x2="47.5" y2="47.5" stroke="var(--color-text-home-header-secondary-g5rqe4, #d5dbdb)" stroke-linecap="square"/><line x1="0.5" y1="0.49122807" x2="0.5" y2="47.5" stroke="var(--color-text-home-header-secondary-g5rqe4, #d5dbdb)" stroke-linecap="square"/><use href="#icon-flow-wait"/></g><g class="text-lines" transform="translate(-48,-24.5)"><text transform="translate(0,17)" class="line1"><tspan xml:space="preserve" text-anchor="start">Wait state</tspan></text><text transform="translate(0,35.5)" class="line2 label"><tspan xml:space="preserve" text-anchor="start">Wait 20 seconds</tspan></text></g></g></g></g><g class="node-container" transform="translate(425.5,741)"><g class="sc-hNKHps ejDZrz node state Task" data-testid="graph-Stop database (fail)" data-state-id="Stop database (fail)" data-state-type="Task"><g class="new-look-state-node "><rect x="-120" y="-24.5" width="240" height="49" rx="3" ry="3"/><g class="handle" transform="translate(-120,-24.5)"><path d="M5,16 L5,34 M8,16 L8,34"/></g><g class="icon" transform="translate(-104,-24)"><rect fill="var(--color-background-container-header-g9rg0j, #fafafa)" x="0.0361026108" y="0.0181291967" width="48" height="48"/><line x1="47.5" y1="0.49122807" x2="47.5" y2="47.5" stroke="var(--color-text-home-header-secondary-g5rqe4, #d5dbdb)" stroke-linecap="square"/><line x1="0.5" y1="0.49122807" x2="0.5" y2="47.5" stroke="var(--color-text-home-header-secondary-g5rqe4, #d5dbdb)" stroke-linecap="square"/><use href="#icon-service-ec2"/></g><g class="text-lines" transform="translate(-48,-24.5)"><text transform="translate(0,17)" class="line1"><tspan xml:space="preserve" text-anchor="start">EC2: StopInstances</tspan></text><text transform="translate(0,35.5)" class="line2 label"><tspan xml:space="preserve" text-anchor="start">Stop database (fail)</tspan></text></g></g></g></g><g class="node-container" transform="translate(260,271.5)"><g class="sc-hNKHps ejDZrz node state Pass" data-testid="graph-Set loop counter" data-state-id="Set loop counter" data-state-type="Pass"><g class="new-look-state-node "><rect x="-120" y="-24.5" width="240" height="49" rx="3" ry="3"/><g class="handle" transform="translate(-120,-24.5)"><path d="M5,16 L5,34 M8,16 L8,34"/></g><g class="icon" transform="translate(-104,-24)"><rect fill="var(--color-background-container-header-g9rg0j, #fafafa)" x="0.0361026108" y="0.0181291967" width="48" height="48"/><line x1="47.5" y1="0.49122807" x2="47.5" y2="47.5" stroke="var(--color-text-home-header-secondary-g5rqe4, #d5dbdb)" stroke-linecap="square"/><line x1="0.5" y1="0.49122807" x2="0.5" y2="47.5" stroke="var(--color-text-home-header-secondary-g5rqe4, #d5dbdb)" stroke-linecap="square"/><use href="#icon-flow-pass"/></g><g class="text-lines" transform="translate(-48,-24.5)"><text transform="translate(0,17)" class="line1"><tspan xml:space="preserve" text-anchor="start">Pass state</tspan></text><text transform="translate(0,35.5)" class="line2 label"><tspan xml:space="preserve" text-anchor="start">Set loop counter</tspan></text></g></g></g></g><g class="node-container" transform="translate(260,355.5)"><g class="sc-hNKHps ejDZrz node state Task" data-testid="graph-Check database state" data-state-id="Check database state" data-state-type="Task"><g class="new-look-state-node "><rect x="-120" y="-24.5" width="240" height="49" rx="3" ry="3"/><g class="handle" transform="translate(-120,-24.5)"><path d="M5,16 L5,34 M8,16 L8,34"/></g><g class="icon" transform="translate(-104,-24)"><rect fill="var(--color-background-container-header-g9rg0j, #fafafa)" x="0.0361026108" y="0.0181291967" width="48" height="48"/><line x1="47.5" y1="0.49122807" x2="47.5" y2="47.5" stroke="var(--color-text-home-header-secondary-g5rqe4, #d5dbdb)" stroke-linecap="square"/><line x1="0.5" y1="0.49122807" x2="0.5" y2="47.5" stroke="var(--color-text-home-header-secondary-g5rqe4, #d5dbdb)" stroke-linecap="square"/><use href="#icon-service-ec2"/></g><g class="text-lines" transform="translate(-48,-24.5)"><text transform="translate(0,17)" class="line1"><tspan xml:space="preserve" text-anchor="start">EC2: DescribeInstances</tspan></text><text transform="translate(0,35.5)" class="line2 label"><tspan xml:space="preserve" text-anchor="start">Check database state</tspan></text></g></g></g></g><g class="node-container" transform="translate(705.5,741)"><g class="sc-hNKHps ejDZrz node state Wait" data-testid="graph-Wait 5 seconds" data-state-id="Wait 5 seconds" data-state-type="Wait"><g class="new-look-state-node "><rect x="-120" y="-24.5" width="240" height="49" rx="3" ry="3"/><g class="handle" transform="translate(-120,-24.5)"><path d="M5,16 L5,34 M8,16 L8,34"/></g><g class="icon" transform="translate(-104,-24)"><rect fill="var(--color-background-container-header-g9rg0j, #fafafa)" x="0.0361026108" y="0.0181291967" width="48" height="48"/><line x1="47.5" y1="0.49122807" x2="47.5" y2="47.5" stroke="var(--color-text-home-header-secondary-g5rqe4, #d5dbdb)" stroke-linecap="square"/><line x1="0.5" y1="0.49122807" x2="0.5" y2="47.5" stroke="var(--color-text-home-header-secondary-g5rqe4, #d5dbdb)" stroke-linecap="square"/><use href="#icon-flow-wait"/></g><g class="text-lines" transform="translate(-48,-24.5)"><text transform="translate(0,17)" class="line1"><tspan xml:space="preserve" text-anchor="start">Wait state</tspan></text><text transform="translate(0,35.5)" class="line2 label"><tspan xml:space="preserve" text-anchor="start">Wait 5 seconds</tspan></text></g></g></g></g><g class="node-container" transform="translate(182.5,456)"><g class="sc-hNKHps ejDZrz node state Choice" data-testid="graph-Is database running?" data-state-id="Is database running?" data-state-type="Choice"><g class="new-look-state-node "><rect x="-120" y="-24.5" width="240" height="49" rx="3" ry="3"/><g class="handle" transform="translate(-120,-24.5)"><path d="M5,16 L5,34 M8,16 L8,34"/></g><g class="icon" transform="translate(-104,-24)"><rect fill="var(--color-background-container-header-g9rg0j, #fafafa)" x="0.0361026108" y="0.0181291967" width="48" height="48"/><line x1="47.5" y1="0.49122807" x2="47.5" y2="47.5" stroke="var(--color-text-home-header-secondary-g5rqe4, #d5dbdb)" stroke-linecap="square"/><line x1="0.5" y1="0.49122807" x2="0.5" y2="47.5" stroke="var(--color-text-home-header-secondary-g5rqe4, #d5dbdb)" stroke-linecap="square"/><use href="#icon-flow-choice"/></g><g class="text-lines" transform="translate(-48,-24.5)"><text transform="translate(0,17)" class="line1"><tspan xml:space="preserve" text-anchor="start">Choice state</tspan></text><text transform="translate(0,35.5)" class="line2 label"><tspan xml:space="preserve" text-anchor="start">Is database running?</tspan></text></g></g></g></g><g class="node-container" transform="translate(427.5,640.5)"><g class="sc-hNKHps ejDZrz node state Choice" data-testid="graph-Counter exceeded?" data-state-id="Counter exceeded?" data-state-type="Choice"><g class="new-look-state-node "><rect x="-120" y="-24.5" width="240" height="49" rx="3" ry="3"/><g class="handle" transform="translate(-120,-24.5)"><path d="M5,16 L5,34 M8,16 L8,34"/></g><g class="icon" transform="translate(-104,-24)"><rect fill="var(--color-background-container-header-g9rg0j, #fafafa)" x="0.0361026108" y="0.0181291967" width="48" height="48"/><line x1="47.5" y1="0.49122807" x2="47.5" y2="47.5" stroke="var(--color-text-home-header-secondary-g5rqe4, #d5dbdb)" stroke-linecap="square"/><line x1="0.5" y1="0.49122807" x2="0.5" y2="47.5" stroke="var(--color-text-home-header-secondary-g5rqe4, #d5dbdb)" stroke-linecap="square"/><use href="#icon-flow-choice"/></g><g class="text-lines" transform="translate(-48,-24.5)"><text transform="translate(0,17)" class="line1"><tspan xml:space="preserve" text-anchor="start">Choice state</tspan></text><text transform="translate(0,35.5)" class="line2 label"><tspan xml:space="preserve" text-anchor="start">Counter exceeded?</tspan></text></g></g></g></g><g class="node-container" transform="translate(135,640.5)"><g class="sc-hNKHps ejDZrz node state Task" data-testid="graph-Notify" data-state-id="Notify" data-state-type="Task"><g class="new-look-state-node "><rect x="-120" y="-24.5" width="240" height="49" rx="3" ry="3"/><g class="handle" transform="translate(-120,-24.5)"><path d="M5,16 L5,34 M8,16 L8,34"/></g><g class="icon" transform="translate(-104,-24)"><rect fill="var(--color-background-container-header-g9rg0j, #fafafa)" x="0.0361026108" y="0.0181291967" width="48" height="48"/><line x1="47.5" y1="0.49122807" x2="47.5" y2="47.5" stroke="var(--color-text-home-header-secondary-g5rqe4, #d5dbdb)" stroke-linecap="square"/><line x1="0.5" y1="0.49122807" x2="0.5" y2="47.5" stroke="var(--color-text-home-header-secondary-g5rqe4, #d5dbdb)" stroke-linecap="square"/><use href="#icon-service-lam"/></g><g class="text-lines" transform="translate(-48,-24.5)"><text transform="translate(0,17)" class="line1"><tspan xml:space="preserve" text-anchor="start">Lambda: Invoke</tspan></text><text transform="translate(0,35.5)" class="line2 label"><tspan xml:space="preserve" text-anchor="start">Notify</tspan></text></g></g></g></g><g class="node-container" transform="translate(427.5,556.5)"><g class="sc-hNKHps ejDZrz node state Pass" data-testid="graph-Increment loop counter" data-state-id="Increment loop counter" data-state-type="Pass"><g class="new-look-state-node "><rect x="-120" y="-24.5" width="240" height="49" rx="3" ry="3"/><g class="handle" transform="translate(-120,-24.5)"><path d="M5,16 L5,34 M8,16 L8,34"/></g><g class="icon" transform="translate(-104,-24)"><rect fill="var(--color-background-container-header-g9rg0j, #fafafa)" x="0.0361026108" y="0.0181291967" width="48" height="48"/><line x1="47.5" y1="0.49122807" x2="47.5" y2="47.5" stroke="var(--color-text-home-header-secondary-g5rqe4, #d5dbdb)" stroke-linecap="square"/><line x1="0.5" y1="0.49122807" x2="0.5" y2="47.5" stroke="var(--color-text-home-header-secondary-g5rqe4, #d5dbdb)" stroke-linecap="square"/><use href="#icon-flow-pass"/></g><g class="text-lines" transform="translate(-48,-24.5)"><text transform="translate(0,17)" class="line1"><tspan xml:space="preserve" text-anchor="start">Pass state</tspan></text><text transform="translate(0,35.5)" class="line2 label"><tspan xml:space="preserve" text-anchor="start">Increment loop counter</tspan></text></g></g></g></g><g class="node-container" transform="translate(120,741)"><g class="sc-hNKHps ejDZrz node state Task" data-testid="graph-Stop database (success)" data-state-id="Stop database (success)" data-state-type="Task"><g class="new-look-state-node "><rect x="-120" y="-24.5" width="240" height="49" rx="3" ry="3"/><g class="handle" transform="translate(-120,-24.5)"><path d="M5,16 L5,34 M8,16 L8,34"/></g><g class="icon" transform="translate(-104,-24)"><rect fill="var(--color-background-container-header-g9rg0j, #fafafa)" x="0.0361026108" y="0.0181291967" width="48" height="48"/><line x1="47.5" y1="0.49122807" x2="47.5" y2="47.5" stroke="var(--color-text-home-header-secondary-g5rqe4, #d5dbdb)" stroke-linecap="square"/><line x1="0.5" y1="0.49122807" x2="0.5" y2="47.5" stroke="var(--color-text-home-header-secondary-g5rqe4, #d5dbdb)" stroke-linecap="square"/><use href="#icon-service-ec2"/></g><g class="text-lines" transform="translate(-48,-24.5)"><text transform="translate(0,17)" class="line1"><tspan xml:space="preserve" text-anchor="start">EC2: StopInstances</tspan></text><text transform="translate(0,35.5)" class="line2 label"><tspan xml:space="preserve" text-anchor="start">Stop database (success)</tspan></text></g></g></g></g><g class="node-container" transform="translate(425.5,825)"><g class="sc-hNKHps ejDZrz node state Fail" data-testid="graph-Fail" data-state-id="Fail" data-state-type="Fail"><g class="new-look-state-node "><rect x="-120" y="-24.5" width="240" height="49" rx="3" ry="3"/><g class="handle" transform="translate(-120,-24.5)"><path d="M5,16 L5,34 M8,16 L8,34"/></g><g class="icon" transform="translate(-104,-24)"><rect fill="var(--color-background-container-header-g9rg0j, #fafafa)" x="0.0361026108" y="0.0181291967" width="48" height="48"/><line x1="47.5" y1="0.49122807" x2="47.5" y2="47.5" stroke="var(--color-text-home-header-secondary-g5rqe4, #d5dbdb)" stroke-linecap="square"/><line x1="0.5" y1="0.49122807" x2="0.5" y2="47.5" stroke="var(--color-text-home-header-secondary-g5rqe4, #d5dbdb)" stroke-linecap="square"/><use href="#icon-flow-fail"/></g><g class="text-lines" transform="translate(-48,-24.5)"><text transform="translate(0,17)" class="line1"><tspan xml:space="preserve" text-anchor="start">Fail state</tspan></text><text transform="translate(0,35.5)" class="line2 label"><tspan xml:space="preserve" text-anchor="start">Fail</tspan></text></g></g></g></g><g class="node-container" transform="translate(120,825)"><g class="sc-hNKHps ejDZrz node state Succeed" data-testid="graph-Success" data-state-id="Success" data-state-type="Succeed"><g class="new-look-state-node "><rect x="-120" y="-24.5" width="240" height="49" rx="3" ry="3"/><g class="handle" transform="translate(-120,-24.5)"><path d="M5,16 L5,34 M8,16 L8,34"/></g><g class="icon" transform="translate(-104,-24)"><rect fill="var(--color-background-container-header-g9rg0j, #fafafa)" x="0.0361026108" y="0.0181291967" width="48" height="48"/><line x1="47.5" y1="0.49122807" x2="47.5" y2="47.5" stroke="var(--color-text-home-header-secondary-g5rqe4, #d5dbdb)" stroke-linecap="square"/><line x1="0.5" y1="0.49122807" x2="0.5" y2="47.5" stroke="var(--color-text-home-header-secondary-g5rqe4, #d5dbdb)" stroke-linecap="square"/><use href="#icon-flow-succeed"/></g><g class="text-lines" transform="translate(-48,-24.5)"><text transform="translate(0,17)" class="line1"><tspan xml:space="preserve" text-anchor="start">Succeed state</tspan></text><text transform="translate(0,35.5)" class="line2 label"><tspan xml:space="preserve" text-anchor="start">Success</tspan></text></g></g></g></g><g class="node-container" transform="translate(260,906.5)"><g><circle class="sc-gITdmR dOOrib shape" r="22"/><text class="sc-brCFrO iUlozD label"><tspan xml:space="preserve" text-anchor="middle" alignment-baseline="central">End</tspan></text></g></g></g><g class="edges"><g class="sc-dsQDmV gofmjl edge"><path id="state-Start database:state-Wait 20 seconds:normal" d="M292.2916666666667,128L286.90972222222223,130.91666666666666C281.52777777777777,133.83333333333334,270.7638888888889,139.66666666666666,265.38194444444446,145.5C260,151.33333333333334,260,157.16666666666666,260,160.08333333333334L260,163" marker-end="url(#arrowhead)" fill="none"/></g><g class="sc-dsQDmV gofmjl edge"><path id="state-Start database:state-Stop database (fail):catch:0" d="M457.5,114.17796610169492L516.1666666666666,119.39830508474576C574.8333333333334,124.61864406779661,692.1666666666666,135.0593220338983,750.8333333333334,147.27966101694915C809.5,159.5,809.5,173.5,809.5,187.5C809.5,201.5,809.5,215.5,809.5,229.5C809.5,243.5,809.5,257.5,809.5,271.5C809.5,285.5,809.5,299.5,809.5,313.5C809.5,327.5,809.5,341.5,809.5,356.875C809.5,372.25,809.5,389,809.5,405.75C809.5,422.5,809.5,439.25,809.5,456C809.5,472.75,809.5,489.5,809.5,506.25C809.5,523,809.5,539.75,809.5,555.125C809.5,570.5,809.5,584.5,809.5,598.5C809.5,612.5,809.5,626.5,809.5,641.875C809.5,657.25,809.5,674,765.5,688.1328125C721.5,702.265625,633.5,713.78125,589.5,719.5390625L545.5,725.296875" marker-end="url(#arrowhead)" fill="none"/><g data-testid="graph-Start database-0" class="edge-label" transform="translate(750.8333333333334,147.27966101694915)"><rect x="-25" y="-8.25" width="50" height="16.5" class="sc-cZwWEu iOwQak"/><text class="sc-jTYCaT ghmWTV label"><tspan xml:space="preserve" text-anchor="middle" alignment-baseline="central">Catch #1</tspan><title>Catch #1</title></text></g></g><g class="sc-dsQDmV gofmjl edge"><path id="start:state-Start database" d="M337.5,44L337.5,46.916666666666664C337.5,49.833333333333336,337.5,55.666666666666664,337.5,61.5C337.5,67.33333333333333,337.5,73.16666666666667,337.5,76.08333333333333L337.5,79" marker-end="url(#arrowhead)" fill="none"/></g><g class="sc-dsQDmV gofmjl edge"><path id="state-Wait 20 seconds:state-Set loop counter:normal" d="M260,212L260,214.91666666666666C260,217.83333333333334,260,223.66666666666666,260,229.5C260,235.33333333333334,260,241.16666666666666,260,244.08333333333334L260,247" marker-end="url(#arrowhead)" fill="none"/></g><g class="sc-dsQDmV gofmjl edge"><path id="state-Set loop counter:state-Check database state:normal" d="M260,296L260,298.9166666666667C260,301.8333333333333,260,307.6666666666667,260,313.5C260,319.3333333333333,260,325.1666666666667,260,328.0833333333333L260,331" marker-end="url(#arrowhead)" fill="none"/></g><g class="sc-dsQDmV gofmjl edge"><path id="state-Wait 5 seconds:state-Check database state:normal" d="M711.1069651741293,716.5L712.0891376451077,712.2083333333334C713.0713101160862,707.9166666666666,715.0356550580431,699.3333333333334,716.0178275290215,686.6666666666666C717,674,717,657.25,717,641.875C717,626.5,717,612.5,717,598.5C717,584.5,717,570.5,717,555.125C717,539.75,717,523,717,506.25C717,489.5,717,472.75,717,456C717,439.25,717,422.5,660.8333333333334,407.949124726477C604.6666666666666,393.3982494529541,492.3333333333333,381.0464989059081,436.1666666666667,374.8706236323851L380,368.69474835886217" marker-end="url(#arrowhead)" fill="none"/></g><g class="sc-dsQDmV gofmjl edge"><path id="state-Check database state:state-Is database running?:normal" d="M222.2139303482587,380L215.59494195688225,384.2916666666667C208.97595356550582,388.5833333333333,195.7379767827529,397.1666666666667,189.11898839137643,405.75C182.5,414.3333333333333,182.5,422.9166666666667,182.5,427.2083333333333L182.5,431.5" marker-end="url(#arrowhead)" fill="none"/></g><g class="sc-dsQDmV gofmjl edge"><path id="state-Counter exceeded?:state-Stop database (fail):choiceRule:0" d="M414.09203980099505,665L411.74336650082915,669.2916666666666C409.39469320066337,673.5833333333334,404.6973466003317,682.1666666666666,404.5265339966832,690.75C404.35572139303486,699.3333333333334,408.71144278606965,707.9166666666666,410.8893034825871,712.2083333333334L413.06716417910445,716.5" marker-end="url(#arrowhead)" fill="none"/><g data-testid="graph-Counter exceeded?-0" class="edge-label" transform="translate(404.5265339966832,690.75)"><rect x="-12.5" y="-8.25" width="25" height="16.5" class="sc-cZwWEu iOwQak"/><text class="sc-jTYCaT ghmWTV label"><tspan xml:space="preserve" text-anchor="middle" alignment-baseline="central">Yes</tspan><title>Yes</title></text></g></g><g class="sc-dsQDmV gofmjl edge"><path id="state-Counter exceeded?:state-Wait 5 seconds:choiceDefault" d="M495.7587064676617,665L507.71558872305144,669.2916666666666C519.6724709784411,673.5833333333334,543.5862354892206,682.1666666666666,567.3291873963516,690.75C591.0721393034826,699.3333333333334,614.6442786069651,707.9166666666666,626.4303482587064,712.2083333333334L638.2164179104477,716.5" marker-end="url(#arrowhead)" fill="none"/><g data-testid="graph-Counter exceeded?-Default" class="edge-label" transform="translate(567.3291873963516,690.75)"><rect x="-22" y="-8.25" width="44" height="16.5" class="sc-cZwWEu iOwQak"/><text class="sc-jTYCaT ghmWTV label"><tspan xml:space="preserve" text-anchor="middle" alignment-baseline="central">Default</tspan><title>Default</title></text></g></g><g class="sc-dsQDmV gofmjl edge"><path id="state-Is database running?:state-Notify:choiceRule:0" d="M159.3407960199005,480.5L155.28399668325042,484.7916666666667C151.22719734660032,489.0833333333333,143.11359867330017,497.6666666666667,139.05679933665007,510.3333333333333C135,523,135,539.75,135,555.125C135,570.5,135,584.5,135,594.4166666666666C135,604.3333333333334,135,610.1666666666666,135,613.0833333333334L135,616" marker-end="url(#arrowhead)" fill="none"/><g data-testid="graph-Is database running?-0" class="edge-label" transform="translate(139.05679933665007,510.3333333333333)"><rect x="-12.5" y="-8.25" width="25" height="16.5" class="sc-cZwWEu iOwQak"/><text class="sc-jTYCaT ghmWTV label"><tspan xml:space="preserve" text-anchor="middle" alignment-baseline="central">Yes</tspan><title>Yes</title></text></g></g><g class="sc-dsQDmV gofmjl edge"><path id="state-Is database running?:state-Increment loop counter:choiceDefault" d="M301.952736318408,480.5L322.87728026533995,484.7916666666667C343.8018242122719,489.0833333333333,385.650912106136,497.6666666666667,406.57545605306797,506.25C427.5,514.8333333333334,427.5,523.4166666666666,427.5,527.7083333333334L427.5,532" marker-end="url(#arrowhead)" fill="none"/><g data-testid="graph-Is database running?-Default" class="edge-label" transform="translate(406.57545605306797,506.25)"><rect x="-22" y="-8.25" width="44" height="16.5" class="sc-cZwWEu iOwQak"/><text class="sc-jTYCaT ghmWTV label"><tspan xml:space="preserve" text-anchor="middle" alignment-baseline="central">Default</tspan><title>Default</title></text></g></g><g class="sc-dsQDmV gofmjl edge"><path id="state-Increment loop counter:state-Counter exceeded?:normal" d="M427.5,581L427.5,583.9166666666666C427.5,586.8333333333334,427.5,592.6666666666666,427.5,598.5C427.5,604.3333333333334,427.5,610.1666666666666,427.5,613.0833333333334L427.5,616" marker-end="url(#arrowhead)" fill="none"/></g><g class="sc-dsQDmV gofmjl edge"><path id="state-Notify:state-Stop database (success):normal" d="M127.68656716417911,665L126.40547263681593,669.2916666666666C125.12437810945273,673.5833333333334,122.56218905472637,682.1666666666666,121.28109452736318,690.75C120,699.3333333333334,120,707.9166666666666,120,712.2083333333334L120,716.5" marker-end="url(#arrowhead)" fill="none"/></g><g class="sc-dsQDmV gofmjl edge"><path id="state-Notify:state-Stop database (fail):catch:0" d="M183.75621890547262,665L192.29684908789386,669.2916666666666C200.83747927031507,673.5833333333334,217.91873963515755,682.1666666666666,242.7292703150912,690.75C267.5398009950249,699.3333333333334,300.07960199004975,707.9166666666666,316.34950248756223,712.2083333333334L332.61940298507466,716.5" marker-end="url(#arrowhead)" fill="none"/><g data-testid="graph-Notify-0" class="edge-label" transform="translate(242.7292703150912,690.75)"><rect x="-25" y="-8.25" width="50" height="16.5" class="sc-cZwWEu iOwQak"/><text class="sc-jTYCaT ghmWTV label"><tspan xml:space="preserve" text-anchor="middle" alignment-baseline="central">Catch #1</tspan><title>Catch #1</title></text></g></g><g class="sc-dsQDmV gofmjl edge"><path id="state-Stop database (fail):state-Fail:normal" d="M425.5,765.5L425.5,768.4166666666666C425.5,771.3333333333334,425.5,777.1666666666666,425.5,783C425.5,788.8333333333334,425.5,794.6666666666666,425.5,797.5833333333334L425.5,800.5" marker-end="url(#arrowhead)" fill="none"/></g><g class="sc-dsQDmV gofmjl edge"><path id="state-Stop database (success):state-Success:normal" d="M120,765.5L120,768.4166666666666C120,771.3333333333334,120,777.1666666666666,120,783C120,788.8333333333334,120,794.6666666666666,120,797.5833333333334L120,800.5" marker-end="url(#arrowhead)" fill="none"/></g><g class="sc-dsQDmV gofmjl edge"><path id="state-Success:end:normal" d="M120,849.5L120,852.4166666666666C120,855.3333333333334,120,861.1666666666666,139.8044356314808,869.6710133865012C159.60887126296163,878.1753601063356,199.21774252592323,889.3507202126711,219.02217815740403,894.9384002658389L238.82661378888483,900.5260803190068" marker-end="url(#arrowhead)" fill="none"/></g><g class="sc-dsQDmV gofmjl edge"><path id="state-Fail:end:normal" d="M425.5,849.5L425.5,852.4166666666666C425.5,855.3333333333334,425.5,861.1666666666666,401.48315981616446,869.8154492684481C377.46631963232886,878.4642318702296,329.4326392646578,889.9284637404593,305.4157990808222,895.660579675574L281.39895889698664,901.392695610689" marker-end="url(#arrowhead)" fill="none"/></g></g><defs><marker id="arrowhead" markerWidth="8" markerHeight="6" refX="7" refY="3" orient="auto" class="sc-dFdIVH hTqHhA"><polygon points="0 0, 8 3, 0 6"/></marker><marker id="highlighted-arrowhead" markerWidth="6" markerHeight="4" refX="5" refY="2" orient="auto" class="sc-dFdIVH hTqHhA"><polygon points="0 0, 6 2, 0 4"/></marker><marker id="error-arrowhead" markerWidth="6" markerHeight="4" refX="5" refY="2" orient="auto" class="sc-dFdIVH hTqHhA"><polygon points="0 0, 6 2, 0 4"/></marker><marker id="large-arrowhead" markerWidth="10" markerHeight="8" refX="9" refY="4" orient="auto" class="sc-dFdIVH hTqHhA"><polygon points="0 0, 10 4, 0 8"/></marker><marker id="large-highlighted-arrowhead" markerWidth="5.5" markerHeight="4" refX="4.5" refY="2" orient="auto" class="sc-dFdIVH hTqHhA"><polygon points="0 0, 5.5 2, 0 4"/></marker><marker id="large-error-arrowhead" markerWidth="10" markerHeight="8" refX="9" refY="4" orient="auto" class="sc-dFdIVH hTqHhA"><polygon points="0 0, 10 4, 0 8"/></marker><linearGradient x1="0%" y1="100%" x2="100%" y2="0%" id="gradient-orange"><stop stop-color="#C8511B" offset="0%"/><stop stop-color="#FF9900" offset="100%"/></linearGradient><linearGradient x1="0%" y1="100%" x2="100%" y2="0%" id="gradient-turquoise"><stop stop-color="#055F4E" offset="0%"/><stop stop-color="#56C0A7" offset="100%"/></linearGradient><linearGradient x1="0%" y1="100%" x2="100%" y2="0%" id="gradient-blue"><stop stop-color="#2E27AD" offset="0%"/><stop stop-color="#527FFF" offset="100%"/></linearGradient><linearGradient x1="0%" y1="100%" x2="100%" y2="0%" id="gradient-pink"><stop stop-color="#B0084D" offset="0%"/><stop stop-color="#FF4F8B" offset="100%"/></linearGradient><linearGradient x1="0%" y1="100%" x2="100%" y2="0%" id="gradient-red"><stop stop-color="#BD0816" offset="0%"/><stop stop-color="#FF5252" offset="100%"/></linearGradient><linearGradient x1="0%" y1="100%" x2="100%" y2="0%" id="gradient-green"><stop stop-color="#1B660F" offset="0%"/><stop stop-color="#6CAE3E" offset="100%"/></linearGradient><linearGradient x1="0%" y1="100%" x2="100%" y2="0%" id="gradient-purple"><stop stop-color="#4D27A8" offset="0%"/><stop stop-color="#A166FF" offset="100%"/></linearGradient><linearGradient x1="0%" y1="100%" x2="100%" y2="0%" id="gradient-grey"><stop stop-color="#DCDCDC" offset="0%"/><stop stop-color="#F6F5F7" offset="100%"/></linearGradient>,<linearGradient x1="0%" y1="100%" x2="100%" y2="0%" id="gradient-ag"><stop stop-color="#BC1356" offset="0%"/><stop stop-color="#F34482" offset="100%"/></linearGradient><linearGradient x1="0%" y1="100%" x2="100%" y2="0%" id="gradient-athena"><stop stop-color="#5930B5" offset="0%"/><stop stop-color="#945DF2" offset="100%"/></linearGradient><linearGradient x1="0%" y1="100%" x2="100%" y2="0%" id="gradient-emr"><stop stop-color="#5930B5" offset="0%"/><stop stop-color="#945DF2" offset="100%"/></linearGradient><linearGradient x1="0%" y1="100%" x2="100%" y2="0%" id="gradient-glue"><stop stop-color="#5930B5" offset="0%"/><stop stop-color="#945DF2" offset="100%"/></linearGradient><linearGradient x1="0%" y1="100%" x2="100%" y2="0%" id="gradient-sns"><stop stop-color="#BC1356" offset="0%"/><stop stop-color="#F34482" offset="100%"/></linearGradient><linearGradient x1="0%" y1="100%" x2="100%" y2="0%" id="gradient-states"><stop stop-color="#BC1356" offset="0%"/><stop stop-color="#F34482" offset="100%"/></linearGradient><linearGradient x1="0%" y1="100%" x2="100%" y2="0%" id="gradient-generic"><stop stop-color="#ccc" offset="0%"/><stop stop-color="#ddd" offset="100%"/></linearGradient><g stroke="none" stroke-width="1" fill="none" fill-rule="evenodd" id="icon-flow-pass"><g transform="translate(10.500000, 8.750000)" fill="#0073BB" fill-rule="nonzero"><path d="M13.8217363,31.2803301 L13.7368454,31.3532508 L13.7368454,31.3532508 L13.6534426,31.407053 L13.6534426,31.407053 L13.6052878,31.4313839 L13.6052878,31.4313839 L13.5081671,31.4681458 L13.5081671,31.4681458 L13.4513711,31.4828395 L13.4513711,31.4828395 L13.3846755,31.4942127 L13.3846755,31.4942127 L13.3412428,31.498357 L13.3412428,31.498357 L13.241495,31.498357 L13.241495,31.498357 L13.1802045,31.4917588 L13.1802045,31.4917588 L13.1314644,31.4828361 L13.1314644,31.4828361 L13.0652921,31.4652652 L12.9776235,31.4314294 L12.9776235,31.4314294 L12.9293782,31.4070608 L12.9293782,31.4070608 L12.8294824,31.3409596 L12.7610762,31.2803301 L12.7610762,31.2803301 L8.26107616,26.7803301 C7.96818295,26.4874369 7.96818295,26.0125631 8.26107616,25.7196699 C8.52734273,25.4534034 8.94400641,25.4291973 9.2376179,25.6470518 L9.32173634,25.7196699 L12.5814063,28.979 L12.581,19.7495522 L3.5,19.75 C1.6314366,19.75 0.104873551,18.2857224 0.00517886273,16.4420352 L0,16.25 L0,12.25 C0,10.3814366 1.4642776,8.85487355 3.3079648,8.75517886 L3.5,8.75 L11.686,8.74955216 L11.686,10.2495522 L3.5,10.25 C2.4456382,10.25 1.58183488,11.0658778 1.50548574,12.1007377 L1.5,12.25 L1.5,16.25 C1.5,17.3043618 2.31587779,18.1681651 3.35073766,18.2445143 L3.5,18.25 L22.5,18.25 C23.5543618,18.25 24.4181651,17.4341222 24.4945143,16.3992623 L24.5,16.25 L24.5,12.25 C24.5,11.1956382 23.6841222,10.3318349 22.6492623,10.2554857 L22.5,10.25 L15.686,10.2495522 L15.686,8.74955216 L22.5,8.75 C24.3685634,8.75 25.8951264,10.2142776 25.9948211,12.0579648 L26,12.25 L26,16.25 C26,18.1185634 24.5357224,19.6451264 22.6920352,19.7448211 L22.5,19.75 L14.081,19.7495522 L14.0814063,28.899 L17.2610762,25.7196699 L17.3451946,25.6470518 C17.6388061,25.4291973 18.0554698,25.4534034 18.3217363,25.7196699 C18.5880029,25.9859365 18.6122089,26.4026002 18.3943545,26.6962117 L18.3217363,26.7803301 L13.8217363,31.2803301 Z"/><polygon points="14.0818291 0 14.0818291 14.5 12.5818291 14.5 12.5818291 0"/></g></g><g stroke="none" stroke-width="1" fill="none" fill-rule="evenodd" id="icon-flow-wait"><path d="M26.75,8.85825893 L26.75,10.3582589 L25,10.3582589 L25.0010332,13.2887186 C27.2395643,13.4625704 29.3159269,14.2145278 31.0809903,15.3954598 L32.3188424,13.6912711 L34.7458934,15.4546269 L33.3682881,17.3513419 C35.4674483,19.6240431 36.75,22.6622436 36.75,26 C36.75,33.0416306 31.0416306,38.75 24,38.75 C16.9583694,38.75 11.25,33.0416306 11.25,26 C11.25,22.7657627 12.4542298,19.8127884 14.4387685,17.5649977 L12.9047966,15.4546269 L15.3318476,13.6912711 L16.6858812,15.555197 C18.2387522,14.4657629 20.0456704,13.7138336 22.0001068,13.4059384 L22,10.3582589 L20.25,10.3582589 L20.25,8.85825893 L26.75,8.85825893 Z M24,14.75 C17.7867966,14.75 12.75,19.7867966 12.75,26 C12.75,32.2132034 17.7867966,37.25 24,37.25 C30.2132034,37.25 35.25,32.2132034 35.25,26 C35.25,19.7867966 30.2132034,14.75 24,14.75 Z M24.4666648,19.3452148 L24.466,26.499 L30.9387207,26.4993034 L30.9387207,27.9993034 L23.7166648,27.9993034 C23.336969,27.9993034 23.0231738,27.7171495 22.9735114,27.3510739 L22.9666648,27.2493034 L22.9666648,19.3452148 L24.4666648,19.3452148 Z" fill="#0073BB" fill-rule="nonzero"/></g><g stroke="none" stroke-width="1" fill="none" fill-rule="evenodd" id="icon-flow-choice"><g transform="translate(9.252020, 8.729185)" fill="#0073BB" fill-rule="nonzero"><path d="M13.7176503,0.219669914 C13.9839168,-0.0465966484 14.4005805,-0.0708026996 14.694192,0.147051761 L14.7783104,0.219669914 L26.7991257,12.2404852 C27.0653923,12.5067518 27.0895983,12.9234154 26.8717439,13.2170269 L26.7991257,13.3011454 L19.848,20.251 L27.063,27.58 L27.0635443,24.4725437 C27.0635443,24.0583302 27.3993308,23.7225437 27.8135443,23.7225437 C28.1901021,23.7225437 28.5018441,24.0000532 28.5554124,24.3617142 L28.5635443,24.4725437 L28.5635443,29.4222912 C28.5635443,29.4735748 28.5583971,29.5236562 28.5485912,29.5720469 L28.5290567,29.6477745 L28.4912259,29.7440224 L28.4674556,29.7898473 L28.4399848,29.8348433 L28.3922808,29.8993609 L28.3266417,29.9693147 L28.2903734,30.0012261 L28.2103598,30.0588356 L28.1372883,30.0990133 L28.0408973,30.1372113 L27.9243738,30.1641593 C27.8841362,30.1698129 27.8491297,30.1722912 27.8135443,30.1722912 L22.8637969,30.1722912 C22.4495833,30.1722912 22.1137969,29.8365048 22.1137969,29.4222912 C22.1137969,29.0457334 22.3913063,28.7339914 22.7529674,28.6804231 L22.8637969,28.6722912 L26.032,28.672 L18.787,21.312 L14.7783104,25.3219606 C14.5120439,25.5882272 14.0953802,25.6124333 13.8017687,25.3945788 L13.7176503,25.3219606 L9.63,21.234 L2.386,28.671 L5.69974747,28.6722912 L5.81057697,28.6804231 C6.17223802,28.7339914 6.44974747,29.0457334 6.44974747,29.4222912 C6.44974747,29.801987 6.16759359,30.1157822 5.80151803,30.1654446 L5.69974747,30.1722912 L0.75,30.1722912 L0.645175107,30.1650238 L0.571316134,30.150876 L0.491748953,30.1266437 L0.399838514,30.0857012 L0.323957521,30.0396165 L0.243169757,29.975129 L0.170912131,29.8989347 L0.109961584,29.8134582 L0.0656949991,29.7297074 L0.0297396696,29.6320944 L0.0076057584,29.5294944 L6.67910172e-13,29.4222912 L6.67910172e-13,24.4725437 L0.00813192572,24.3617142 C0.0617002376,24.0000532 0.373442216,23.7225437 0.75,23.7225437 C1.12969577,23.7225437 1.44349096,24.0046976 1.49315338,24.3707732 L1.5,24.4725437 L1.499,27.433 L8.569,20.174 L1.69683498,13.3011454 C1.43056842,13.0348788 1.40636237,12.6182151 1.62421683,12.3246036 L1.69683498,12.2404852 L13.7176503,0.219669914 Z M14.3527697,23.728356 L25.2081355,12.7708153 L14.2479803,1.81066017 L3.28782524,12.7708153 L9.616,19.099 L14.3527697,23.728356 Z"/><path d="M15.2319803,14.0468153 L15.2319803,13.2668153 C16.0033137,12.8508153 16.5579803,12.4218153 16.8959803,11.9798153 C17.2339803,11.5378153 17.4029803,11.0178153 17.4029803,10.4198153 C17.4029803,9.65714861 17.151647,9.06131528 16.6489803,8.63231528 C16.1463137,8.20331528 15.448647,7.98881528 14.5559803,7.98881528 C13.6979803,7.98881528 12.874647,8.19248195 12.0859803,8.59981528 L12.0859803,8.59981528 L12.0859803,10.3288153 C12.8313137,9.98214861 13.4943137,9.80881528 14.0749803,9.80881528 C14.395647,9.80881528 14.6404803,9.87814861 14.8094803,10.0168153 C14.9784803,10.1554819 15.0629803,10.3591486 15.0629803,10.6278153 C15.0629803,10.9138153 14.9763137,11.1651486 14.8029803,11.3818153 C14.629647,11.5984819 14.343647,11.8151486 13.9449803,12.0318153 L13.9449803,12.0318153 L13.1909803,12.4348153 L13.3339803,14.0468153 L15.2319803,14.0468153 Z M14.3089803,17.4398153 C14.7249803,17.4398153 15.0608137,17.3141486 15.3164803,17.0628153 C15.572147,16.8114819 15.6999803,16.4821486 15.6999803,16.0748153 C15.6999803,15.6674819 15.572147,15.3381486 15.3164803,15.0868153 C15.0608137,14.8354819 14.7249803,14.7098153 14.3089803,14.7098153 C13.8929803,14.7098153 13.557147,14.8354819 13.3014803,15.0868153 C13.0458137,15.3381486 12.9179803,15.6674819 12.9179803,16.0748153 C12.9179803,16.4821486 13.0458137,16.8114819 13.3014803,17.0628153 C13.557147,17.3141486 13.8929803,17.4398153 14.3089803,17.4398153 Z"/></g></g><g stroke="none" stroke-width="1" fill="none" fill-rule="evenodd" id="icon-flow-succeed"><g transform="translate(11.250000, 12.250000)" fill="#2AB512" fill-rule="nonzero"><path d="M12.75,0 C5.70836944,0 0,5.70836944 0,12.75 C0,19.7916306 5.70836944,25.5 12.75,25.5 C19.7916306,25.5 25.5,19.7916306 25.5,12.75 C25.5,5.70836944 19.7916306,0 12.75,0 Z M12.75,1.5 C18.9632034,1.5 24,6.53679656 24,12.75 C24,18.9632034 18.9632034,24 12.75,24 C6.53679656,24 1.5,18.9632034 1.5,12.75 C1.5,6.53679656 6.53679656,1.5 12.75,1.5 Z"/><path d="M17.482151,9.3912361 C17.7750442,9.09834288 18.2499179,9.09834288 18.5428111,9.3912361 C18.8090777,9.65750266 18.8332838,10.0741663 18.6154293,10.3677778 L18.5428111,10.4518963 L11.1581958,17.8365117 C10.9013427,18.0933647 10.5030038,18.1258243 10.2104294,17.9293959 L10.1171609,17.8554362 L6.98253225,14.9408143 C6.67918728,14.6587599 6.66192789,14.1841999 6.94398232,13.8808549 C7.20039544,13.6050868 7.61590405,13.565753 7.91723953,13.7727921 L8.0039417,13.842305 L10.608,16.264 L17.482151,9.3912361 Z"/></g></g><g stroke="none" stroke-width="1" fill="none" fill-rule="evenodd" id="icon-flow-fail"><g transform="translate(11.250000, 12.250000)" fill="#D13212" fill-rule="nonzero"><path d="M12.75,0 C5.70836944,0 0,5.70836944 0,12.75 C0,19.7916306 5.70836944,25.5 12.75,25.5 C19.7916306,25.5 25.5,19.7916306 25.5,12.75 C25.5,5.70836944 19.7916306,0 12.75,0 Z M12.75,1.5 C18.9632034,1.5 24,6.53679656 24,12.75 C24,18.9632034 18.9632034,24 12.75,24 C6.53679656,24 1.5,18.9632034 1.5,12.75 C1.5,6.53679656 6.53679656,1.5 12.75,1.5 Z"/><path d="M16.5831403,8.21116377 C16.8767518,7.99330931 17.2934155,8.01751536 17.559682,8.28378193 C17.8259486,8.55004849 17.8501547,8.96671217 17.6323002,9.26032366 L17.559682,9.3444421 L13.622464,13.282112 L17.559682,17.2196699 C17.8525753,17.5125631 17.8525753,17.9874369 17.559682,18.2803301 C17.2934155,18.5465966 16.8767518,18.5708027 16.5831403,18.3529482 L16.4990219,18.2803301 L12.561464,14.343112 L8.62379406,18.2803301 L8.53967563,18.3529482 C8.24606413,18.5708027 7.82940045,18.5465966 7.56313389,18.2803301 C7.29686733,18.0140635 7.27266128,17.5973998 7.49051574,17.3037883 L7.56313389,17.2196699 L11.500464,13.282112 L7.56313389,9.3444421 C7.27024067,9.05154888 7.27024067,8.57667514 7.56313389,8.28378193 C7.82940045,8.01751536 8.24606413,7.99330931 8.53967563,8.21116377 L8.62379406,8.28378193 L12.561464,12.221112 L16.4990219,8.28378193 L16.5831403,8.21116377 Z"/></g></g><g stroke="none" stroke-width="1" fill="none" fill-rule="evenodd" id="icon-service-lam"><polygon fill="url(#gradient-orange)" fill-rule="nonzero" points="0 0 48 0 48 48 0 48"/><g transform="translate(11, 10)" fill="#FFFFFF"><path d="M26.5889213,27.8937088 L19.6925948,27.8937088 C19.4772752,27.8931074 19.2813916,27.7706914 19.1888047,27.578869 L9.43766764,7.45673404 L5.31218659,7.45673404 C5.00303594,7.45673404 4.75241983,7.20943823 4.75241983,6.90438337 L4.75241983,0.828526005 C4.75241983,0.523471153 5.00303594,0.276175335 5.31218659,0.276175335 L13.9325948,0.276175335 C14.1479143,0.276776788 14.3437979,0.399192787 14.4363848,0.591015217 L24.1427405,20.7131501 L26.5889213,20.7131501 C26.8980719,20.7131501 27.148688,20.9604459 27.148688,21.2655008 L27.148688,27.3413582 C27.148688,27.646413 26.8980719,27.8937088 26.5889213,27.8937088 Z M20.0452478,26.7890075 L26.0291545,26.7890075 L26.0291545,21.8178515 L23.7900875,21.8178515 C23.5747679,21.81725 23.3788843,21.694834 23.2862974,21.5030116 L13.5799417,1.38087667 L5.87755102,1.38087667 L5.87755102,6.3520327 L9.79591837,6.3520327 C10.0112379,6.35263416 10.2071215,6.47505016 10.2997085,6.66687259 L20.0452478,26.7890075 Z"/><path d="M8.10542274,27.8937099 L0.82845481,27.8937099 C0.635054571,27.8940907 0.455155006,27.7959347 0.352653061,27.634104 C0.243858391,27.4681848 0.233185428,27.2575536 0.324664723,27.0817533 L7.93749271,11.3894708 C8.03007964,11.1976484 8.22596323,11.0752324 8.4412828,11.0746298 L8.4412828,11.0746298 C8.65533487,11.0742082 8.85089022,11.1942751 8.94507289,11.3839473 L12.5891545,18.7799228 C12.6634688,18.931712 12.6634688,19.1086786 12.5891545,19.2604679 L8.6148105,27.5457279 C8.53147526,27.7523199 8.33072312,27.8894609 8.10542274,27.8937099 L8.10542274,27.8937099 Z M1.72408163,26.7890075 L7.75276968,26.7890075 L11.4640233,19.0560981 L8.44688047,12.8973881 L1.72408163,26.7890075 Z"/></g></g><g stroke="none" stroke-width="1" fill="none" fill-rule="evenodd" id="icon-service-ec2"><polygon fill="url(#gradient-orange)" fill-rule="nonzero" points="0 0 48 0 48 48 0 48"/><g transform="translate(8 8) scale(0.032)"><path d="M716.1 750L714.3 283.9 250 285.7 250 751.9 716.1 750ZM750 285.7L821.4 285.7 821.4 321.4 750 321.4 750 392.9 821.4 392.9 821.4 428.6 750 428.6 750 500 821.4 500 821.4 535.7 750 535.7 750 607.1 821.4 607.1 821.4 642.9 750 642.9 750 714.3 821.4 714.3 821.4 750 750 750 750 751.9C750 770.5 734.8 785.7 716.1 785.7L714.3 785.7 714.3 857.1 678.6 857.1 678.6 785.7 607.1 785.7 607.1 857.1 571.4 857.1 571.4 785.7 500 785.7 500 857.1 464.3 857.1 464.3 785.7 392.9 785.7 392.9 857.1 357.1 857.1 357.1 785.7 285.7 785.7 285.7 857.1 250 857.1 250 785.7 248.1 785.7C229.5 785.7 214.3 770.5 214.3 751.9L214.3 750 142.9 750 142.9 714.3 214.3 714.3 214.3 642.9 142.9 642.9 142.9 607.1 214.3 607.1 214.3 535.7 142.9 535.7 142.9 500 214.3 500 214.3 428.6 142.9 428.6 142.9 392.9 214.3 392.9 214.3 321.4 142.9 321.4 142.9 285.7 214.3 285.7 214.3 283.9C214.3 265.2 229.5 250 248.1 250L250 250 250 178.6 285.7 178.6 285.7 250 357.1 250 357.1 178.6 392.9 178.6 392.9 250 464.3 250 464.3 178.6 500 178.6 500 250 571.4 250 571.4 178.6 607.1 178.6 607.1 250 678.6 250 678.6 178.6 714.3 178.6 714.3 250 716.1 250C734.8 250 750 265.2 750 283.9L750 285.7ZM535.7 964.3L35.7 964.3 35.7 464.3 107.1 464.3 107.1 428.6 37.9 428.6C17 428.6 0 445.6 0 466.5L0 962.1C0 983 17 1000 37.9 1000L533.5 1000C554.4 1000 571.4 983 571.4 962.1L571.4 892.9 535.7 892.9 535.7 964.3ZM1000 37.9L1000 533.5C1000 554.4 983 571.4 962.1 571.4L857.1 571.4 857.1 535.7 964.3 535.7 964.3 35.7 464.3 35.7 464.3 142.9 428.6 142.9 428.6 37.9C428.6 17 445.6 0 466.5 0L962.1 0C983 0 1000 17 1000 37.9L1000 37.9Z" fill="#FFFFFF"/></g></g></defs></g><style data-styled="true" data-styled-version="5.3.5">.ejDZrz{cursor:pointer;}/*!sc*/
data-styled.g80[id="sc-hNKHps"]{content:"ejDZrz,"}/*!sc*/
.gofmjl{stroke:#555;background-color:#555;stroke-width:1px;}/*!sc*/
data-styled.g81[id="sc-dsQDmV"]{content:"gofmjl,"}/*!sc*/
.iOwQak{stroke-width:0;stroke:none;fill:#f2f3f3;}/*!sc*/
data-styled.g82[id="sc-cZwWEu"]{content:"iOwQak,"}/*!sc*/
.ghmWTV{font-size:10px;line-height:12.5;stroke:none;}/*!sc*/
data-styled.g83[id="sc-jTYCaT"]{content:"ghmWTV,"}/*!sc*/
.hTqHhA{fill:var(--color-text-form-secondary-1c3szk,#687078);}/*!sc*/
data-styled.g92[id="sc-dFdIVH"]{content:"hTqHhA,"}/*!sc*/
.iUlozD{font-weight:400;font-size:12px;line-height:16px;font-family:Amazon Ember,Arial,Roboto,Arial,sans-serif;text-shadow:none;fill:var(--color-text-body-default-7m2b3r,#16191f);}/*!sc*/
data-styled.g93[id="sc-brCFrO"]{content:"iUlozD,"}/*!sc*/
.dOOrib{fill:#fff9cc;stroke:var(--color-text-form-secondary-1c3szk,#687078);stroke-width:0.6px;}/*!sc*/
data-styled.g94[id="sc-gITdmR"]{content:"dOOrib,"}/*!sc*/
</style><style>
.new-look-state-node &gt; rect:first-of-type {
  stroke: #687078;
  stroke-width: 1px;
  fill: #FFFFFF;
}

.new-look-state-node .error-icon circle {
 stroke-linejoin: round;
}

.new-look-state-node .error-icon circle, .new-look-state-node .error-icon path {
 stroke: var(--color-border-status-error-fybu9w, #d13212);
 fill: none;
 stroke-width: 2px;
}

.new-look-state-node.has-errors &gt; rect:first-of-type {
 stroke: var(--color-border-status-error-fybu9w, #d13212);
 fill: var(--color-background-status-error-h1a0iq, #fdf3f1);
}

.new-look-state-node .handle path {
  stroke: var(--color-border-dropdown-item-hover-d32f3f, #879596);
  stroke-width: 1px;
  fill: none;
}

.new-look-state-node {
  font-weight: 400;
  font-family: Amazon Ember, Arial, Roboto, Arial, sans-serif;
  text-shadow: none;
}

.new-look-state-node .line1 {
  fill: #687078;
  font-size: 12px;
}

.selected.node &gt; .new-look-state-node &gt; rect,
.selected.node &gt; .new-look-state-node &gt; .new-look-state-node &gt; rect,
.selected.node &gt; .new-look-state-node &gt; .bounding-box &gt; .new-look-state-node-sub &gt; rect
 {
  stroke: var(--color-border-status-info-0iedcr, #0073bb);
  fill: var(--color-background-status-info-yq3r41, #f1faff);
  stroke-width: 1px;
}

.new-look-state-node-sub .item-source.not-specified {
  height: 15px;
  color: #687078;
  font-family: "Amazon Ember";
  font-size: 12px;
  letter-spacing: 0;
  line-height: 16px;
  font-weight: 400;
}
.new-look-state-node-sub .item-source .item-source_name{
  font-weight: 600;
}
.new-look-state-node-sub .item-source.not-specified .item-source_name{
  font-weight: 400;
}

.new-look-state-node-sub .item-source.not-specified {
  font-style: italic;
}



.new-look-state-node-sub .item-source
.selected.node &gt; .new-look-state-node.has-errors &gt; rect,
.selected.node &gt; .new-look-state-node.has-errors &gt; .new-look-state-node &gt; rect,
{
 stroke: var(--color-border-status-error-fybu9w, #d13212);
 fill: #fde0da;
}

.new-look-graph .drag-source {
  opacity: 0.2;
}

.new-look-graph .edge, .new-look-graph path.starting-connection {
  stroke-width: 1px;
  stroke: var(--color-text-form-secondary-1c3szk, #687078);
  marker-end: url(#large-arrowhead);
}

.new-look-graph .edge-label {
  cursor: pointer;
}

.new-look-graph .edge-label rect {
  stroke-width: 1px;
  stroke: var(--color-border-control-default-bwkbmv, #879596);
  fill: var(--color-background-container-header-g9rg0j, #fafafa);
}

.new-look-graph .edge-label.selected rect {
  stroke: var(--color-border-status-info-0iedcr, #0073bb);
  fill: var(--color-background-status-info-yq3r41, #f1faff);
  stroke-width: 0.6px;
}



.new-look-graph .edge-label .label {
  fill: var(--color-text-form-secondary-1c3szk, #687078);
  font-family: Amazon Ember, Arial, Roboto, Arial, sans-serif;
}

/* centering the shape text */
@-moz-document url-prefix() {
  .new-look-graph .shape + text,
  .new-look-graph .edge-label text {
    transform: translateY(3.5px);
  }
}

.new-look-graph .edge path {
  marker-end: url(#large-arrowhead) !important;
}

.new-look-graph .edge.selected path{
  stroke: var(--color-border-status-info-0iedcr, #0073bb);
  stroke-width: 1.1px;
}

.new-look-graph .edge.dragging-over path, .new-look-graph  g.dragging-over .starting-connection {
  stroke: #5C86FF;
  stroke-width: 2px;
}

.new-look-graph .edge.dragging-over path, .new-look-graph .dragging-over path.starting-connection {
  marker-end: url(#large-highlighted-arrowhead) !important;
}

.new-look-graph .edge.dragging-over .edge-label text {
  fill: #5C86FF;
}

#large-highlighted-arrowhead {
  fill: #5C86FF;
}

#large-highlighted-arrowhead path {
  stroke: none;
}

.new-look-graph .edge.drop-not-supported path, g.drop-not-supported .starting-connection {
  stroke: red;
}

.new-look-graph .edge.drop-not-supported .edge-label text {
  fill: red;
}

.new-look-graph .edge.drop-not-supported path {
  marker-end: url(#large-error-arrowhead) !important;
}

#large-error-arrowhead {
  fill: red;
}


.node.Placeholder.dragging-over rect {
  stroke: var(--color-border-status-info-0iedcr, #0073bb);
  fill: var(--color-background-status-info-yq3r41, #f1faff);
  stroke-width: 2px;
}

.node.Placeholder.dragging-over .label {
  fill: var(--color-text-status-info-09r23g, #0073bb);
}

g.Placeholder rect {
  stroke-dasharray: 5 4;
  stroke: var(--color-border-dropdown-item-hover-d32f3f, #879596);
  fill: var(--color-background-control-default-8xmy94, #ffffff);
  stroke-width: 1px;
}

g.Placeholder .label {
  font-style: italic;
  fill: var(--color-text-input-placeholder-rtvjp5, #687078);
}

.node.Placeholder.drop-not-supported rect {
  stroke: red;
}

.node.Placeholder.drop-not-supported .label {
  fill: red;
}
</style><style>.line2 { font-size: 14px }</style></svg>